<svg width="120" height="120" viewBox="0 0 120 120" xmlns="http://www.w3.org/2000/svg">
<defs>
<radialGradient id="bg" cx="50%" cy="46%" r="85%"><stop offset="0%" stop-color="#0f1114"/><stop offset="64%" stop-color="#08090b"/><stop offset="100%" stop-color="#040506"/></radialGradient>
<radialGradient id="vig" cx="50%" cy="50%" r="64%"><stop offset="52%" stop-color="#000" stop-opacity="0"/><stop offset="100%" stop-color="#000" stop-opacity="0.6"/></radialGradient>
<filter id="soft" x="-30%" y="-30%" width="160%" height="160%"><feGaussianBlur stdDeviation="2.2"/></filter>
<filter id="grain"><feTurbulence type="fractalNoise" baseFrequency="0.9" numOctaves="2" seed="11" stitchTiles="stitch"/><feColorMatrix type="matrix" values="0 0 0 0 0.8  0 0 0 0 0.84  0 0 0 0 0.82  0 0 0 0.6 0"/></filter>
</defs>
<rect width="120" height="120" fill="url(#bg)"/>
<g filter="url(#soft)"><path d="M19.00 18.23 Q14.22 21.16 9.94 19.18 Q5.66 17.21 0.90 15.16 Q-3.85 13.11 -1.82 6.99 Q0.22 0.88 5.46 -1.43 Q10.69 -3.74 16.88 -0.41 Q23.06 2.93 23.42 9.11 Q23.78 15.30 19.00 18.23Z" fill="rgb(98,123,123)" fill-opacity="0.37"/><path d="M41.12 14.00 Q37.11 16.93 32.96 16.26 Q28.81 15.60 27.77 12.27 Q26.74 8.95 28.89 5.30 Q31.05 1.66 34.99 2.50 Q38.93 3.34 42.03 7.21 Q45.13 11.07 41.12 14.00Z" fill="rgb(72,98,92)" fill-opacity="0.38"/><path d="M34.47 16.34 Q33.45 18.54 31.54 17.37 Q29.64 16.19 28.85 14.06 Q28.07 11.92 28.90 9.52 Q29.73 7.13 32.15 8.44 Q34.58 9.76 35.03 11.95 Q35.49 14.14 34.47 16.34Z" fill="rgb(85,121,110)" fill-opacity="0.32"/><path d="M62.07 23.28 Q56.34 30.78 48.36 32.15 Q40.38 33.51 34.58 28.55 Q28.77 23.58 32.94 17.36 Q37.12 11.14 35.88 5.34 Q34.64 -0.46 42.70 1.86 Q50.75 4.19 53.60 5.88 Q56.45 7.57 62.12 11.67 Q67.80 15.78 62.07 23.28Z" fill="rgb(72,98,92)" fill-opacity="0.42"/><path d="M112.80 17.67 Q111.23 22.93 104.53 19.86 Q97.83 16.78 94.57 11.12 Q91.31 5.45 95.36 1.79 Q99.42 -1.86 106.12 -0.32 Q112.82 1.22 113.59 6.82 Q114.36 12.42 112.80 17.67Z" fill="rgb(123,115,69)" fill-opacity="0.60"/><path d="M18.54 39.03 Q11.02 42.15 2.94 39.77 Q-5.13 37.40 -1.33 31.11 Q2.48 24.83 11.25 23.01 Q20.02 21.20 23.04 28.56 Q26.06 35.91 18.54 39.03Z" fill="rgb(72,98,92)" fill-opacity="0.49"/><path d="M24.80 37.50 Q18.82 41.39 12.27 36.76 Q5.72 32.14 7.72 26.55 Q9.72 20.95 15.98 20.51 Q22.24 20.07 26.51 26.84 Q30.77 33.61 24.80 37.50Z" fill="rgb(85,121,110)" fill-opacity="0.42"/><path d="M42.15 37.80 Q38.83 45.74 30.87 38.76 Q22.91 31.77 23.03 26.02 Q23.15 20.26 30.02 19.89 Q36.88 19.51 41.18 24.69 Q45.47 29.87 42.15 37.80Z" fill="rgb(49,79,64)" fill-opacity="0.45"/><path d="M49.83 31.54 Q47.38 34.24 45.15 34.62 Q42.91 35.00 39.99 32.06 Q37.07 29.13 39.01 26.20 Q40.95 23.28 42.70 21.88 Q44.44 20.47 46.80 21.78 Q49.16 23.08 50.72 25.96 Q52.27 28.84 49.83 31.54Z" fill="rgb(123,144,161)" fill-opacity="0.38"/><path d="M56.79 34.60 Q56.14 37.68 51.30 37.86 Q46.46 38.04 44.39 34.72 Q42.32 31.40 41.62 27.44 Q40.92 23.47 45.94 22.37 Q50.96 21.28 54.48 22.38 Q58.00 23.49 57.72 27.50 Q57.43 31.52 56.79 34.60Z" fill="rgb(123,115,69)" fill-opacity="0.63"/><path d="M46.61 40.00 Q44.34 42.63 42.52 39.80 Q40.70 36.98 40.76 34.83 Q40.83 32.69 44.41 31.54 Q47.98 30.38 48.43 33.87 Q48.88 37.36 46.61 40.00Z" fill="rgb(153,113,120)" fill-opacity="0.54"/><path d="M72.90 36.30 Q70.72 39.70 65.52 41.10 Q60.32 42.50 58.91 36.37 Q57.50 30.24 60.31 25.66 Q63.12 21.07 68.63 22.91 Q74.13 24.75 74.61 28.82 Q75.08 32.89 72.90 36.30Z" fill="rgb(49,79,64)" fill-opacity="0.46"/><path d="M90.73 36.60 Q88.73 39.62 85.53 39.04 Q82.33 38.47 78.59 35.70 Q74.85 32.92 75.72 27.84 Q76.58 22.75 81.00 23.34 Q85.43 23.93 89.31 22.82 Q93.20 21.71 92.96 27.65 Q92.73 33.58 90.73 36.60Z" fill="rgb(153,113,120)" fill-opacity="0.52"/><path d="M99.39 31.70 Q99.00 34.82 94.33 35.26 Q89.66 35.70 87.63 33.17 Q85.60 30.64 84.70 28.43 Q83.80 26.22 85.73 24.04 Q87.67 21.87 90.45 21.52 Q93.23 21.18 95.38 21.76 Q97.54 22.35 98.66 25.46 Q99.78 28.58 99.39 31.70Z" fill="rgb(98,123,123)" fill-opacity="0.44"/><path d="M120.14 42.75 Q116.27 49.06 109.67 46.64 Q103.07 44.23 100.55 42.05 Q98.03 39.86 98.36 35.14 Q98.69 30.42 103.79 28.31 Q108.88 26.21 114.63 26.89 Q120.38 27.57 122.19 32.00 Q124.00 36.43 120.14 42.75Z" fill="rgb(33,61,71)" fill-opacity="0.37"/><path d="M26.37 56.40 Q22.29 61.23 18.44 60.35 Q14.59 59.46 6.86 58.10 Q-0.86 56.73 0.58 50.14 Q2.02 43.56 6.57 40.11 Q11.12 36.66 14.22 36.39 Q17.32 36.13 21.70 38.36 Q26.09 40.59 28.27 46.08 Q30.45 51.57 26.37 56.40Z" fill="rgb(153,113,120)" fill-opacity="0.51"/><path d="M11.67 50.58 Q9.28 53.64 5.42 52.69 Q1.55 51.74 1.39 47.83 Q1.22 43.92 3.01 39.79 Q4.81 35.65 10.53 36.53 Q16.25 37.40 15.16 42.46 Q14.06 47.52 11.67 50.58Z" fill="rgb(123,115,69)" fill-opacity="0.43"/><path d="M41.74 59.40 Q39.63 64.81 33.53 63.65 Q27.42 62.50 26.74 59.40 Q26.07 56.30 25.71 49.78 Q25.35 43.25 29.20 44.45 Q33.04 45.64 36.85 45.55 Q40.67 45.47 42.25 49.73 Q43.84 53.99 41.74 59.40Z" fill="rgb(123,144,161)" fill-opacity="0.56"/><path d="M37.20 66.09 Q35.59 68.58 32.27 66.86 Q28.95 65.13 28.87 61.38 Q28.80 57.63 33.60 56.57 Q38.41 55.50 38.61 59.55 Q38.82 63.61 37.20 66.09Z" fill="rgb(98,123,123)" fill-opacity="0.48"/><path d="M57.18 52.91 Q54.37 55.72 49.28 56.35 Q44.18 56.98 42.98 52.75 Q41.78 48.52 45.28 43.96 Q48.78 39.40 53.80 39.70 Q58.81 40.01 59.40 45.06 Q59.99 50.11 57.18 52.91Z" fill="rgb(123,115,69)" fill-opacity="0.40"/><path d="M81.10 58.94 Q78.47 61.08 72.82 63.71 Q67.17 66.34 62.00 64.92 Q56.83 63.50 57.65 57.05 Q58.48 50.60 60.20 43.41 Q61.91 36.23 67.01 37.28 Q72.10 38.34 75.93 41.95 Q79.77 45.56 81.75 51.17 Q83.73 56.79 81.10 58.94Z" fill="rgb(57,85,98)" fill-opacity="0.60"/><path d="M64.05 57.39 Q62.93 60.04 60.30 58.91 Q57.67 57.78 56.92 54.51 Q56.16 51.24 57.70 48.78 Q59.25 46.32 61.75 48.05 Q64.25 49.77 64.71 52.25 Q65.17 54.74 64.05 57.39Z" fill="rgb(85,121,110)" fill-opacity="0.51"/><path d="M111.06 55.00 Q106.35 57.76 100.43 58.44 Q94.51 59.12 92.87 51.46 Q91.22 43.80 93.89 39.24 Q96.56 34.68 103.49 36.10 Q110.43 37.53 113.10 44.88 Q115.77 52.24 111.06 55.00Z" fill="rgb(49,79,64)" fill-opacity="0.52"/><path d="M104.54 62.05 Q101.54 64.78 98.73 64.94 Q95.93 65.11 94.65 63.37 Q93.37 61.62 92.31 59.92 Q91.25 58.21 92.77 56.02 Q94.28 53.84 96.99 53.84 Q99.71 53.85 101.02 54.78 Q102.33 55.71 104.94 57.51 Q107.55 59.32 104.54 62.05Z" fill="rgb(85,121,110)" fill-opacity="0.44"/><path d="M42.58 77.82 Q34.98 82.55 27.17 79.53 Q19.36 76.51 19.67 68.75 Q19.99 60.99 31.72 60.33 Q43.46 59.67 46.83 66.38 Q50.19 73.10 42.58 77.82Z" fill="rgb(49,79,64)" fill-opacity="0.60"/><path d="M59.42 76.02 Q60.10 81.29 54.86 81.08 Q49.61 80.88 44.98 79.66 Q40.34 78.44 40.46 73.24 Q40.57 68.05 42.34 65.57 Q44.12 63.10 49.10 59.56 Q54.09 56.03 55.95 59.45 Q57.81 62.87 58.28 66.82 Q58.75 70.76 59.42 76.02Z" fill="rgb(49,79,64)" fill-opacity="0.37"/><path d="M74.74 80.79 Q70.20 88.48 62.35 85.97 Q54.50 83.45 54.17 77.42 Q53.85 71.38 57.00 63.03 Q60.16 54.68 68.55 56.66 Q76.94 58.63 78.11 65.86 Q79.28 73.10 74.74 80.79Z" fill="rgb(57,85,98)" fill-opacity="0.63"/><path d="M93.91 77.52 Q91.87 83.52 87.97 81.84 Q84.07 80.15 78.56 76.88 Q73.05 73.61 75.95 68.19 Q78.86 62.78 82.08 62.19 Q85.30 61.59 89.83 62.36 Q94.35 63.13 95.14 67.32 Q95.94 71.51 93.91 77.52Z" fill="rgb(123,115,69)" fill-opacity="0.46"/><path d="M118.84 75.92 Q116.19 83.64 111.27 83.97 Q106.34 84.31 100.82 79.78 Q95.30 75.25 94.28 69.54 Q93.26 63.83 97.39 61.44 Q101.52 59.04 106.01 56.65 Q110.50 54.27 115.12 58.04 Q119.73 61.81 120.61 65.01 Q121.48 68.20 118.84 75.92Z" fill="rgb(49,79,64)" fill-opacity="0.62"/><path d="M115.08 84.61 Q113.95 87.67 109.71 86.63 Q105.47 85.59 103.32 81.97 Q101.16 78.35 103.68 75.13 Q106.20 71.90 112.17 72.58 Q118.14 73.27 117.18 77.41 Q116.22 81.55 115.08 84.61Z" fill="rgb(123,115,69)" fill-opacity="0.53"/><path d="M26.06 92.81 Q23.61 96.26 18.37 97.55 Q13.12 98.85 11.00 96.90 Q8.87 94.96 7.70 89.62 Q6.53 84.29 9.43 81.29 Q12.33 78.29 16.94 75.63 Q21.55 72.97 24.32 76.32 Q27.08 79.67 27.79 84.52 Q28.50 89.37 26.06 92.81Z" fill="rgb(123,115,69)" fill-opacity="0.42"/><path d="M33.60 82.71 Q31.03 85.88 27.48 83.60 Q23.94 81.33 21.47 80.78 Q19.01 80.22 19.18 76.10 Q19.35 71.98 22.73 70.87 Q26.11 69.75 29.01 71.30 Q31.90 72.85 34.04 76.19 Q36.18 79.53 33.60 82.71Z" fill="rgb(123,144,161)" fill-opacity="0.36"/><path d="M44.62 97.08 Q41.62 102.87 31.01 103.82 Q20.40 104.77 19.33 99.65 Q18.25 94.52 18.61 88.08 Q18.97 81.63 24.21 78.22 Q29.46 74.81 34.64 78.72 Q39.82 82.64 43.72 86.96 Q47.62 91.29 44.62 97.08Z" fill="rgb(57,85,98)" fill-opacity="0.47"/><path d="M30.26 109.27 Q27.30 114.26 20.39 111.80 Q13.47 109.34 10.32 104.37 Q7.17 99.40 11.25 94.12 Q15.34 88.84 22.85 88.67 Q30.37 88.50 31.79 96.39 Q33.21 104.27 30.26 109.27Z" fill="rgb(123,115,69)" fill-opacity="0.40"/><path d="M61.54 96.24 Q62.09 100.09 55.75 99.36 Q49.40 98.64 45.90 96.19 Q42.41 93.75 44.07 88.85 Q45.74 83.96 49.04 80.95 Q52.34 77.94 57.39 80.91 Q62.44 83.88 61.72 88.14 Q60.99 92.40 61.54 96.24Z" fill="rgb(85,121,110)" fill-opacity="0.50"/><path d="M76.76 95.05 Q76.28 102.04 69.09 101.30 Q61.90 100.56 58.09 97.18 Q54.28 93.80 54.54 88.52 Q54.81 83.24 57.65 77.63 Q60.50 72.03 65.90 70.79 Q71.31 69.54 74.25 74.39 Q77.20 79.25 77.21 83.66 Q77.23 88.06 76.76 95.05Z" fill="rgb(49,79,64)" fill-opacity="0.48"/><path d="M97.62 95.95 Q93.92 98.57 89.96 98.42 Q86.00 98.28 80.85 97.54 Q75.70 96.80 76.89 92.03 Q78.07 87.25 78.66 83.65 Q79.24 80.05 85.50 77.86 Q91.76 75.67 93.92 80.39 Q96.08 85.10 98.70 89.22 Q101.32 93.33 97.62 95.95Z" fill="rgb(49,79,64)" fill-opacity="0.48"/><path d="M93.17 103.00 Q91.76 105.37 89.13 105.33 Q86.51 105.30 84.16 104.03 Q81.82 102.76 83.83 99.97 Q85.83 97.19 87.43 94.65 Q89.03 92.11 90.49 94.67 Q91.95 97.22 93.27 98.93 Q94.59 100.64 93.17 103.00Z" fill="rgb(153,113,120)" fill-opacity="0.41"/><path d="M117.52 90.53 Q112.96 96.30 107.90 92.83 Q102.83 89.35 102.57 81.77 Q102.31 74.19 108.52 74.76 Q114.74 75.34 118.41 80.04 Q122.09 84.75 117.52 90.53Z" fill="rgb(153,113,120)" fill-opacity="0.36"/><path d="M23.11 120.90 Q18.14 128.87 7.69 122.67 Q-2.76 116.46 0.61 108.54 Q3.98 100.62 10.08 100.35 Q16.18 100.07 22.13 106.50 Q28.08 112.93 23.11 120.90Z" fill="rgb(85,121,110)" fill-opacity="0.47"/><path d="M38.97 113.78 Q36.00 115.40 30.91 120.30 Q25.83 125.20 22.27 118.85 Q18.72 112.51 16.21 108.58 Q13.70 104.64 15.14 99.44 Q16.58 94.23 22.94 93.92 Q29.30 93.61 35.70 94.45 Q42.09 95.30 42.02 103.73 Q41.94 112.17 38.97 113.78Z" fill="rgb(49,79,64)" fill-opacity="0.53"/><path d="M55.39 113.38 Q51.16 116.37 45.58 114.49 Q40.00 112.60 41.50 105.70 Q42.99 98.80 49.09 100.33 Q55.19 101.86 57.41 106.12 Q59.62 110.39 55.39 113.38Z" fill="rgb(85,121,110)" fill-opacity="0.47"/><path d="M73.87 110.22 Q67.44 115.90 62.14 112.85 Q56.83 109.81 58.88 103.95 Q60.93 98.10 67.78 96.45 Q74.62 94.80 77.46 99.68 Q80.31 104.55 73.87 110.22Z" fill="rgb(123,115,69)" fill-opacity="0.62"/><path d="M98.98 114.85 Q94.46 121.17 89.17 119.39 Q83.88 117.61 79.78 115.73 Q75.67 113.85 76.58 110.09 Q77.48 106.34 79.16 100.23 Q80.83 94.12 87.32 92.35 Q93.81 90.59 95.08 96.19 Q96.34 101.80 99.92 105.16 Q103.49 108.52 98.98 114.85Z" fill="rgb(98,123,123)" fill-opacity="0.41"/><path d="M116.58 113.09 Q111.16 117.36 103.15 115.71 Q95.13 114.05 98.82 105.95 Q102.51 97.85 108.87 99.36 Q115.24 100.87 118.62 104.84 Q122.00 108.81 116.58 113.09Z" fill="rgb(49,79,64)" fill-opacity="0.39"/></g>
<rect width="120" height="120" filter="url(#grain)" opacity="0.55"/>
<rect width="120" height="120" fill="url(#vig)"/>
</svg>