<svg width="120" height="120" viewBox="0 0 120 120" xmlns="http://www.w3.org/2000/svg">
<defs>
<radialGradient id="bg" cx="50%" cy="44%" r="82%"><stop offset="0%" stop-color="#14171b"/><stop offset="66%" stop-color="#08090b"/><stop offset="100%" stop-color="#050608"/></radialGradient>
<radialGradient id="vig" cx="50%" cy="50%" r="62%"><stop offset="58%" stop-color="#000" stop-opacity="0"/><stop offset="100%" stop-color="#000" stop-opacity="0.55"/></radialGradient>
<filter id="soft" x="-25%" y="-25%" width="150%" height="150%"><feGaussianBlur stdDeviation="1.25"/></filter>
<filter id="grain"><feTurbulence type="fractalNoise" baseFrequency="0.85" numOctaves="2" seed="11" stitchTiles="stitch"/><feColorMatrix type="matrix" values="0 0 0 0 0.82  0 0 0 0 0.86  0 0 0 0 0.84  0 0 0 0.55 0"/></filter>
</defs>
<rect width="120" height="120" fill="url(#bg)"/>
<g filter="url(#soft)"><path d="M45.77 22.89 Q43.19 27.14 39.24 24.98 Q35.28 22.82 32.38 19.00 Q29.48 15.19 33.69 11.18 Q37.89 7.17 43.53 8.38 Q49.17 9.59 48.76 14.11 Q48.35 18.64 45.77 22.89Z" fill="rgb(230,232,226)" fill-opacity="0.72"/><path d="M38.93 29.10 Q38.91 30.72 37.28 31.42 Q35.66 32.12 34.39 30.21 Q33.11 28.30 32.19 27.09 Q31.26 25.89 31.59 24.14 Q31.92 22.40 34.72 22.31 Q37.52 22.21 39.45 22.78 Q41.39 23.35 40.16 25.41 Q38.94 27.48 38.93 29.10Z" fill="rgb(80,182,172)" fill-opacity="0.58"/><path d="M66.92 26.91 Q62.94 29.94 59.32 26.97 Q55.70 24.00 54.32 20.73 Q52.94 17.46 54.50 12.52 Q56.06 7.57 60.87 9.19 Q65.69 10.81 68.29 17.35 Q70.90 23.88 66.92 26.91Z" fill="rgb(212,120,142)" fill-opacity="0.87"/><path d="M63.69 22.39 Q63.36 24.11 61.12 24.25 Q58.88 24.39 57.96 23.24 Q57.05 22.08 55.59 21.09 Q54.12 20.11 55.55 18.02 Q56.98 15.93 58.39 15.25 Q59.79 14.57 61.63 15.75 Q63.47 16.94 63.74 18.80 Q64.01 20.66 63.69 22.39Z" fill="rgb(212,190,72)" fill-opacity="0.70"/><path d="M101.08 23.58 Q98.63 26.17 92.43 25.15 Q86.23 24.13 86.59 20.19 Q86.96 16.25 89.65 12.75 Q92.33 9.25 97.31 9.70 Q102.28 10.15 102.90 15.56 Q103.52 20.98 101.08 23.58Z" fill="rgb(202,150,162)" fill-opacity="0.88"/><path d="M30.50 46.81 Q27.58 50.18 21.06 47.88 Q14.55 45.57 16.34 38.80 Q18.14 32.03 24.29 31.70 Q30.44 31.37 31.94 37.41 Q33.43 43.45 30.50 46.81Z" fill="rgb(212,120,142)" fill-opacity="0.87"/><path d="M30.70 45.95 Q29.68 48.58 27.62 47.99 Q25.56 47.39 23.67 46.30 Q21.77 45.22 20.33 43.32 Q18.89 41.42 20.73 38.48 Q22.56 35.55 24.35 36.91 Q26.15 38.28 28.02 39.30 Q29.89 40.32 30.81 41.82 Q31.73 43.32 30.70 45.95Z" fill="rgb(230,232,226)" fill-opacity="0.70"/><path d="M86.84 40.88 Q85.19 42.59 82.66 42.50 Q80.13 42.41 77.79 39.66 Q75.45 36.92 78.54 34.52 Q81.62 32.13 85.20 32.68 Q88.77 33.23 88.63 36.20 Q88.49 39.17 86.84 40.88Z" fill="rgb(104,148,134)" fill-opacity="0.85"/><path d="M34.03 62.83 Q31.02 64.27 26.67 65.84 Q22.32 67.40 18.89 64.33 Q15.47 61.26 16.44 57.63 Q17.42 54.01 18.93 51.93 Q20.43 49.85 23.26 48.87 Q26.09 47.89 31.37 49.04 Q36.65 50.18 36.84 55.79 Q37.03 61.39 34.03 62.83Z" fill="rgb(212,120,142)" fill-opacity="0.97"/><path d="M49.44 63.70 Q47.26 66.17 43.91 64.96 Q40.56 63.75 36.93 61.29 Q33.30 58.83 36.78 53.84 Q40.26 48.85 47.43 49.81 Q54.60 50.77 53.11 56.00 Q51.62 61.23 49.44 63.70Z" fill="rgb(212,190,72)" fill-opacity="0.97"/><path d="M108.10 68.94 Q108.41 73.28 103.83 75.58 Q99.26 77.87 93.29 73.76 Q87.32 69.65 87.03 64.22 Q86.75 58.79 91.93 57.29 Q97.11 55.79 99.13 55.56 Q101.16 55.33 106.73 55.71 Q112.30 56.09 110.05 60.34 Q107.79 64.59 108.10 68.94Z" fill="rgb(202,150,162)" fill-opacity="0.81"/><path d="M91.89 59.47 Q91.44 60.38 89.86 60.98 Q88.28 61.57 87.45 60.61 Q86.62 59.66 86.35 58.21 Q86.07 56.77 86.18 55.72 Q86.28 54.67 88.25 54.95 Q90.23 55.22 90.60 55.81 Q90.98 56.39 91.66 57.48 Q92.34 58.56 91.89 59.47Z" fill="rgb(150,202,182)" fill-opacity="0.65"/><path d="M28.50 87.66 Q25.39 92.90 18.88 91.83 Q12.36 90.77 9.56 87.33 Q6.77 83.90 7.42 79.10 Q8.07 74.29 12.65 72.83 Q17.22 71.36 23.57 72.66 Q29.92 73.96 30.76 78.19 Q31.60 82.43 28.50 87.66Z" fill="rgb(202,150,162)" fill-opacity="0.78"/><path d="M32.41 82.97 Q29.46 84.06 24.76 82.61 Q20.07 81.16 22.01 76.95 Q23.96 72.73 27.22 74.09 Q30.49 75.45 32.93 78.66 Q35.37 81.87 32.41 82.97Z" fill="rgb(202,150,162)" fill-opacity="0.62"/><path d="M40.17 86.60 Q36.26 89.29 32.94 87.54 Q29.62 85.78 29.75 80.31 Q29.89 74.85 35.20 72.90 Q40.52 70.95 42.31 77.42 Q44.09 83.90 40.17 86.60Z" fill="rgb(202,150,162)" fill-opacity="0.81"/><path d="M92.88 88.97 Q92.01 94.78 86.34 93.32 Q80.67 91.87 78.60 89.04 Q76.53 86.21 73.33 81.95 Q70.12 77.69 72.38 74.54 Q74.64 71.39 79.97 69.57 Q85.31 67.74 88.79 71.93 Q92.26 76.12 93.01 79.65 Q93.76 83.17 92.88 88.97Z" fill="rgb(104,148,134)" fill-opacity="0.85"/><path d="M103.33 81.14 Q100.38 83.93 96.12 86.48 Q91.86 89.02 88.75 83.78 Q85.64 78.53 86.67 74.89 Q87.70 71.24 91.51 68.10 Q95.32 64.95 98.40 67.52 Q101.47 70.09 103.87 74.21 Q106.27 78.34 103.33 81.14Z" fill="rgb(202,150,162)" fill-opacity="0.75"/><path d="M89.93 73.32 Q89.09 75.98 85.89 77.42 Q82.69 78.87 80.33 77.19 Q77.97 75.50 78.62 71.62 Q79.27 67.74 80.00 64.44 Q80.72 61.14 83.85 61.95 Q86.97 62.76 88.48 64.38 Q89.99 66.01 90.38 68.34 Q90.77 70.67 89.93 73.32Z" fill="rgb(104,148,134)" fill-opacity="0.60"/><path d="M30.01 99.00 Q28.91 100.19 26.13 100.97 Q23.34 101.75 21.54 100.87 Q19.74 99.98 17.64 96.25 Q15.53 92.52 18.51 90.02 Q21.49 87.53 23.98 87.12 Q26.47 86.71 28.73 88.91 Q31.00 91.11 31.05 94.46 Q31.11 97.81 30.01 99.00Z" fill="rgb(120,172,192)" fill-opacity="0.73"/><path d="M47.90 109.99 Q45.09 116.54 38.19 111.23 Q31.29 105.93 32.99 101.65 Q34.68 97.38 39.59 96.16 Q44.50 94.95 47.60 99.20 Q50.70 103.45 47.90 109.99Z" fill="rgb(80,182,172)" fill-opacity="0.82"/><path d="M63.38 102.49 Q61.64 106.97 57.24 105.57 Q52.84 104.18 50.61 101.06 Q48.37 97.95 49.06 94.70 Q49.75 91.45 51.73 88.30 Q53.71 85.16 57.43 89.06 Q61.16 92.96 63.14 95.48 Q65.12 98.01 63.38 102.49Z" fill="rgb(212,120,142)" fill-opacity="0.88"/><path d="M50.26 109.70 Q49.45 111.55 47.56 111.11 Q45.67 110.67 44.28 109.76 Q42.89 108.84 41.35 107.14 Q39.81 105.44 41.73 102.95 Q43.66 100.47 45.69 99.64 Q47.72 98.82 50.08 101.47 Q52.45 104.13 51.75 105.99 Q51.06 107.86 50.26 109.70Z" fill="rgb(212,190,72)" fill-opacity="0.70"/><path d="M83.29 103.98 Q78.42 108.64 75.42 106.69 Q72.42 104.74 69.64 101.21 Q66.86 97.69 70.77 92.22 Q74.69 86.74 78.65 90.78 Q82.61 94.82 85.39 97.07 Q88.16 99.32 83.29 103.98Z" fill="rgb(202,150,162)" fill-opacity="0.77"/><path d="M101.46 101.25 Q99.95 104.21 94.63 106.68 Q89.30 109.16 85.69 105.45 Q82.08 101.74 82.33 97.90 Q82.58 94.06 84.05 90.84 Q85.53 87.61 91.08 88.32 Q96.63 89.02 98.91 90.81 Q101.19 92.61 102.08 95.44 Q102.97 98.28 101.46 101.25Z" fill="rgb(212,190,72)" fill-opacity="0.91"/><path d="M97.32 89.26 Q97.11 90.99 94.83 90.74 Q92.55 90.49 92.08 89.27 Q91.60 88.05 91.60 86.15 Q91.60 84.24 93.12 83.60 Q94.63 82.96 96.07 83.80 Q97.50 84.64 97.51 86.09 Q97.52 87.54 97.32 89.26Z" fill="rgb(202,150,162)" fill-opacity="0.73"/></g>
<rect width="120" height="120" filter="url(#grain)" opacity="0.5"/>
<rect width="120" height="120" fill="url(#vig)"/>
</svg>